<?xml version="1.0" encoding="UTF-8" standalone="no"?>
<!-- Created with Inkscape (http://www.inkscape.org/) -->

<svg
   xmlns:dc="http://purl.org/dc/elements/1.1/"
   xmlns:cc="http://creativecommons.org/ns#"
   xmlns:rdf="http://www.w3.org/1999/02/22-rdf-syntax-ns#"
   xmlns:svg="http://www.w3.org/2000/svg"
   xmlns="http://www.w3.org/2000/svg"
   xmlns:sodipodi="http://sodipodi.sourceforge.net/DTD/sodipodi-0.dtd"
   xmlns:inkscape="http://www.inkscape.org/namespaces/inkscape"
   width="128"
   height="128"
   id="svg2"
   version="1.1"
   inkscape:version="0.48.4 r9939"
   sodipodi:docname="New document 1">
  <defs
     id="defs4">
    <clipPath
       clipPathUnits="userSpaceOnUse"
       id="clipPath3099">
      <g
         id="g3101">
        <rect
           inkscape:transform-center-y="-6.0609153"
           inkscape:transform-center-x="-4.0406102"
           transform="matrix(0.67771878,-0.73532119,0.73532119,0.67771878,0,0)"
           y="694.05304"
           x="-683.02997"
           height="36.36549"
           width="7.5761442"
           id="rect3103"
           style="fill:#ffff00;fill-opacity:1;fill-rule:nonzero;stroke:#ffffff;stroke-width:1;stroke-linecap:round;stroke-linejoin:round;stroke-miterlimit:4;stroke-opacity:1;stroke-dasharray:none" />
        <rect
           inkscape:transform-center-y="-6.0609153"
           inkscape:transform-center-x="-4.0406102"
           transform="matrix(0.67771878,-0.73532119,0.73532119,0.67771878,0,0)"
           y="694.7915"
           x="-669.29865"
           height="36.36549"
           width="7.5761442"
           id="rect3105"
           style="fill:#ffff00;fill-opacity:1;fill-rule:nonzero;stroke:#ffffff;stroke-width:1;stroke-linecap:round;stroke-linejoin:round;stroke-miterlimit:4;stroke-opacity:1;stroke-dasharray:none" />
        <rect
           inkscape:transform-center-y="-6.0609153"
           inkscape:transform-center-x="-4.0406102"
           transform="matrix(0.67771878,-0.73532119,0.73532119,0.67771878,0,0)"
           y="695.45563"
           x="-696.84857"
           height="36.36549"
           width="7.5761442"
           id="rect3107"
           style="fill:#ffff00;fill-opacity:1;fill-rule:nonzero;stroke:#ffffff;stroke-width:1;stroke-linecap:round;stroke-linejoin:round;stroke-miterlimit:4;stroke-opacity:1;stroke-dasharray:none" />
        <rect
           inkscape:transform-center-y="-6.0609153"
           inkscape:transform-center-x="-4.0406102"
           transform="matrix(0.67771878,-0.73532119,0.73532119,0.67771878,0,0)"
           y="695.37341"
           x="-655.02484"
           height="36.36549"
           width="7.5761442"
           id="rect3109"
           style="fill:#ffff00;fill-opacity:1;fill-rule:nonzero;stroke:#ffffff;stroke-width:1;stroke-linecap:round;stroke-linejoin:round;stroke-miterlimit:4;stroke-opacity:1;stroke-dasharray:none" />
      </g>
    </clipPath>
    <clipPath
       clipPathUnits="userSpaceOnUse"
       id="clipPath3194">
      <g
         id="g3196"
         transform="matrix(0.98704211,0,0,1.455754,2.2973205,-1363.82)">
        <rect
           transform="translate(0,924.36218)"
           y="55.857143"
           x="51.964287"
           height="4.1071429"
           width="16.071428"
           id="rect3198"
           style="fill:#ffff00;fill-opacity:1;fill-rule:nonzero;stroke:#ffffff;stroke-width:1;stroke-linecap:round;stroke-linejoin:round;stroke-miterlimit:4;stroke-opacity:1;stroke-dasharray:none" />
        <rect
           transform="translate(0,924.36218)"
           y="64.25"
           x="51.785713"
           height="3.75"
           width="16.428572"
           id="rect3200"
           style="fill:#ffff00;fill-opacity:1;fill-rule:nonzero;stroke:#ffffff;stroke-width:1;stroke-linecap:round;stroke-linejoin:round;stroke-miterlimit:4;stroke-opacity:1;stroke-dasharray:none" />
        <rect
           transform="translate(0,924.36218)"
           y="71.75"
           x="54.642857"
           height="3.2142856"
           width="11.607142"
           id="rect3202"
           style="fill:#ffff00;fill-opacity:1;fill-rule:nonzero;stroke:#ffffff;stroke-width:1;stroke-linecap:round;stroke-linejoin:round;stroke-miterlimit:4;stroke-opacity:1;stroke-dasharray:none" />
      </g>
    </clipPath>
  </defs>
  <sodipodi:namedview
     id="base"
     pagecolor="#ffffff"
     bordercolor="#666666"
     borderopacity="1.0"
     inkscape:pageopacity="0.0"
     inkscape:pageshadow="2"
     inkscape:zoom="0.98994949"
     inkscape:cx="18.656134"
     inkscape:cy="40.648113"
     inkscape:document-units="px"
     inkscape:current-layer="layer1"
     showgrid="false"
     inkscape:window-width="494"
     inkscape:window-height="473"
     inkscape:window-x="110"
     inkscape:window-y="129"
     inkscape:window-maximized="0" />
  <metadata
     id="metadata7">
    <rdf:RDF>
      <cc:Work
         rdf:about="">
        <dc:format>image/svg+xml</dc:format>
        <dc:type
           rdf:resource="http://purl.org/dc/dcmitype/StillImage" />
        <dc:title></dc:title>
      </cc:Work>
    </rdf:RDF>
  </metadata>
  <g
     inkscape:label="Layer 1"
     inkscape:groupmode="layer"
     id="layer1"
     transform="translate(0,-924.36218)">
    <rect
       style="fill:#ffd42a;fill-opacity:1;fill-rule:nonzero;stroke:#747474;stroke-width:0.68941075;stroke-linecap:round;stroke-linejoin:round;stroke-miterlimit:4;stroke-opacity:0.49074079;stroke-dasharray:none"
       id="rect4088"
       width="90.185089"
       height="88.792282"
       x="700.88489"
       y="611.04755"
       transform="matrix(0.70851638,0.70569437,-0.70851638,0.70569437,0,0)" />
    <g
       id="g4090"
       transform="translate(-2.0203051,-0.50507627)">
      <path
         sodipodi:nodetypes="ccccccc"
         inkscape:connector-curvature="0"
         id="rect4070"
         d="m 14.324024,946.48533 48.567396,7.73799 54.92741,-7.73799 0,77.38007 -54.349226,7.7379 -49.14558,-7.7379 z"
         style="fill:#800000;fill-opacity:1;fill-rule:nonzero;stroke:none" />
      <path
         sodipodi:nodetypes="ccccccc"
         inkscape:connector-curvature="0"
         id="rect4072"
         d="m 18.949489,952.2888 44.520115,9.6725 49.145576,-9.6725 0,65.1282 -47.989209,8.3828 -45.676482,-8.3828 z"
         style="fill:#ffccaa;fill-opacity:1;fill-rule:nonzero;stroke:none" />
    </g>
    <g
       id="g4078"
       transform="translate(0.25253814,0.75761441)">
      <path
         sodipodi:nodetypes="sssss"
         inkscape:connector-curvature="0"
         id="path3137"
         d="m 75.611918,959.26511 c 3.666458,6.29131 -5.274672,13.3301 -12.022161,13.42953 -6.747491,0.0994 -16.155857,-6.82996 -12.412662,-13.06945 3.736581,-6.22845 3.397625,-9.12407 11.948087,-9.29425 9.438571,-0.1878 8.430556,1.97413 12.486736,8.93417 z"
         style="fill:#000000;fill-opacity:1;fill-rule:nonzero;stroke:#ffffff;stroke-width:1.52754807;stroke-linecap:round;stroke-linejoin:round;stroke-miterlimit:4;stroke-opacity:1" />
      <path
         transform="matrix(1.5118276,-0.02227893,0.02273973,1.5430969,-30.434309,915.281)"
         d="m 68.690372,47.945412 a 7.5761442,12.879445 0 1 1 -15.152289,0 7.5761442,12.879445 0 1 1 15.152289,0 z"
         sodipodi:ry="12.879445"
         sodipodi:rx="7.5761442"
         sodipodi:cy="47.945412"
         sodipodi:cx="61.114227"
         id="path3139"
         style="fill:#000000;fill-opacity:1;fill-rule:nonzero;stroke:#ffffff;stroke-width:1;stroke-linecap:round;stroke-linejoin:round;stroke-miterlimit:4;stroke-opacity:1;stroke-dasharray:none"
         sodipodi:type="arc" />
      <path
         sodipodi:nodetypes="sssssss"
         inkscape:connector-curvature="0"
         id="path3143"
         d="m 72.83811,1021.6701 c -3.896083,12.2766 -8.571679,18.5987 -8.560069,21.2176 0.0047,1.033 0.48134,0.8568 -0.786614,0.8755 -1.609461,0.024 -0.980333,0.7426 -1.073869,-1.0321 -0.19212,-3.6452 -5.02051,-9.6389 -8.91976,-20.776 -3.998056,-11.4192 4.006004,-22.01429 9.346684,-22.09299 5.340681,-0.0787 13.653463,10.27589 9.993628,21.80799 z"
         style="fill:#000000;fill-opacity:1;fill-rule:nonzero;stroke:#ffffff;stroke-width:1.27433324;stroke-linecap:round;stroke-linejoin:round;stroke-miterlimit:4;stroke-opacity:1" />
      <path
         sodipodi:nodetypes="ssssss"
         inkscape:connector-curvature="0"
         id="path3147"
         d="m 56.377431,975.91636 c 3.453589,5.15132 -1.749559,16.76617 -13.352731,23.01439 -17.104733,9.21065 -22.405691,9.51125 -25.859279,4.35985 -3.45359,-5.15142 8.314712,-11.25312 13.352729,-23.01449 1.991019,-4.64807 8.390428,-5.23034 12.404253,-6.25189 6.581188,-1.67498 11.309799,-1.30766 13.455028,1.89214 z"
         style="fill:#cccccc;fill-opacity:1;fill-rule:nonzero;stroke:#747474;stroke-width:1.52754807;stroke-linecap:round;stroke-linejoin:round;stroke-miterlimit:4;stroke-opacity:0.49074079" />
      <path
         clip-path="url(#clipPath3194)"
         sodipodi:nodetypes="sssssss"
         inkscape:connector-curvature="0"
         id="path3143-7"
         d="m 68.185298,76.987297 c -2.661212,11.525048 -5.773965,17.423056 -5.791579,19.893349 -0.0069,0.974406 0.305948,0.814779 -0.521874,0.814779 -1.050785,0 -0.647044,0.686778 -0.691027,-0.988378 -0.09034,-3.440843 -3.184363,-9.161102 -5.622426,-19.71975 -2.499842,-10.826198 2.826629,-20.708128 6.313453,-20.708128 3.486824,0 8.813295,9.88193 6.313453,20.708128 z"
         style="fill:#ffff00;fill-opacity:1;fill-rule:nonzero;stroke:#ffffff;stroke-width:1;stroke-linecap:round;stroke-linejoin:round;stroke-miterlimit:4;stroke-opacity:1"
         transform="matrix(1.5316748,-0.02257141,0.01562059,1.0599984,-32.533448,941.46084)" />
      <rect
         transform="matrix(0.96610164,-0.258162,0.24896137,0.96851342,0,0)"
         y="922.67926"
         x="-181.22845"
         height="14.451484"
         width="1.6219274"
         id="rect4028"
         style="fill:#000000;fill-opacity:1;fill-rule:nonzero;stroke:none" />
      <rect
         transform="matrix(0.95378536,0.30048874,-0.28899878,0.95732946,0,0)"
         y="874.20032"
         x="340.099"
         height="14.440412"
         width="1.6232148"
         id="rect4028-2"
         style="fill:#000000;fill-opacity:1;fill-rule:nonzero;stroke:none" />
      <path
         sodipodi:nodetypes="ssssss"
         inkscape:connector-curvature="0"
         id="path3147-4"
         d="m 69.618475,976.12569 c -3.300291,5.25088 2.242843,16.70734 14.025088,22.61093 17.368707,8.70288 22.676207,8.84678 25.976507,3.59588 3.3003,-5.25085 -8.64268,-11.00313 -14.02507,-22.61092 -2.127125,-4.58739 -8.540909,-4.98086 -12.583093,-5.8837 -6.627685,-1.48032 -11.343423,-0.9738 -13.393432,2.28781 z"
         style="fill:#cccccc;fill-opacity:1;fill-rule:nonzero;stroke:#747474;stroke-width:1.52754807;stroke-linecap:round;stroke-linejoin:round;stroke-miterlimit:4;stroke-opacity:0.49074079" />
    </g>
  </g>
</svg>
